<?xml version="1.0" encoding="UTF-8"?>
<svg version="1.1" xmlns="http://www.w3.org/2000/svg" width="622" height="271">
<path d="M0 0 C24.75 0 49.5 0 75 0 C75 1.65 75 3.3 75 5 C74.45472656 5.10957031 73.90945313 5.21914063 73.34765625 5.33203125 C62.75271655 7.31085819 62.75271655 7.31085819 54 13 C49.68346451 34.58267745 52 56.98990131 52 79 C123.28 79.33 194.56 79.66 268 80 C268 99.14 268 118.28 268 138 C261.88326403 138.67963733 256.12523546 139.14295912 250.02122498 139.12025452 C249.16415626 139.12110894 248.30708755 139.12196337 247.42404705 139.12284368 C244.57751666 139.1244792 241.73104637 139.11900895 238.88452148 139.11352539 C236.83395896 139.11324308 234.78339633 139.11340212 232.73283386 139.1139679 C227.1839481 139.11425414 221.63508406 139.1083853 216.08620334 139.10139394 C210.28061964 139.09513167 204.47503541 139.09455433 198.66944885 139.09336853 C187.68371073 139.09026369 176.69798259 139.08206171 165.71224886 139.07201904 C153.2020014 139.06083161 140.69175345 139.05534082 128.18150222 139.05032361 C102.45432929 139.03987839 76.7271652 139.02229535 51 139 C51.09281945 145.52897535 51.20019203 152.05759863 51.31738281 158.58618164 C51.35551631 160.80422628 51.39039561 163.02232946 51.421875 165.24047852 C51.46786647 168.44047889 51.52580329 171.64008158 51.5859375 174.83984375 C51.60326431 176.31226784 51.60326431 176.31226784 51.62094116 177.81443787 C51.82084563 188.48350066 51.82084563 188.48350066 56.140625 197.953125 C59.55897229 200.40013863 62.67699296 201.16141517 66.75 201.75 C73.92567568 202.92567568 73.92567568 202.92567568 75 204 C75 205.65 75 207.3 75 209 C50.25 209 25.5 209 0 209 C-0.33 207.35 -0.66 205.7 -1 204 C2.2889407 202.09131019 5.18395504 201.5888681 8.9375 201.125 C13.65614578 200.37783319 16.81992182 199.81609381 20 196 C22.56138246 190.31911729 22.34760743 184.59048672 22.4140625 178.4765625 C22.44311172 176.82459366 22.44311172 176.82459366 22.4727478 175.13925171 C22.53234928 171.63457901 22.57885162 168.12987312 22.625 164.625 C22.66319762 162.24347555 22.70225039 159.86196466 22.7421875 157.48046875 C22.83963712 151.65379368 22.92091051 145.82694759 23 140 C-1.94995323 139.10625072 -26.86580401 138.87294081 -51.83016133 138.93153763 C-56.77515188 138.94173086 -61.72014706 138.9450663 -66.66514587 138.94897461 C-79.13094123 138.95991382 -91.59671718 138.97956414 -104.0625 139 C-117.64478173 139.02211881 -131.22705673 139.04257065 -144.80935282 139.05341816 C-150.67372797 139.05839346 -156.53806851 139.06823629 -162.4024297 139.08184814 C-166.02221691 139.08927811 -169.64199933 139.09261661 -173.26179314 139.0948143 C-174.9428829 139.09669291 -176.62397171 139.10030685 -178.30505371 139.10574722 C-180.59056314 139.11291547 -182.8759956 139.11400319 -185.16151428 139.11352539 C-186.44159394 139.115746 -187.7216736 139.11796661 -189.04054356 139.12025452 C-192 139 -192 139 -194 138 C-194 118.86 -194 99.72 -194 80 C-122.39 79.67 -50.78 79.34 23 79 C25.28604745 44.08358486 25.28604745 44.08358486 19 11 C14.49154561 7.26752743 9.49874671 7.27790596 3.86328125 6.72265625 C1 6 1 6 -0.45703125 4.05859375 C-1 2 -1 2 0 0 Z " fill="#FCFCFC" transform="translate(274,29)"/>
<path d="M0 0 C24.75 0 49.5 0 75 0 C75 1.65 75 3.3 75 5 C74.45472656 5.10957031 73.90945313 5.21914063 73.34765625 5.33203125 C62.6440634 7.15577893 62.6440634 7.15577893 54 13 C51.3188273 20.43945988 51.73745147 28.66043034 51.8046875 36.4453125 C51.80893234 38.32185013 51.80893234 38.32185013 51.81326294 40.23629761 C51.82249832 43.52751564 51.84039882 46.81852961 51.8626709 50.10968018 C51.88330139 53.48194872 51.89241145 56.85424828 51.90234375 60.2265625 C51.92258732 66.81786848 51.96175247 73.40867603 52 80 C42.43 80 32.86 80 23 80 C23.00644531 77.84597656 23.01289063 75.69195312 23.01953125 73.47265625 C23.02652339 63.48854128 22.91198153 53.50665847 22.73754883 43.52416992 C22.70392303 41.45036035 22.67601446 39.3764509 22.65356445 37.30249023 C22.61999023 34.26247485 22.5677891 31.22326738 22.51171875 28.18359375 C22.50532883 27.26372177 22.4989389 26.34384979 22.49235535 25.39610291 C22.36636986 19.86649064 21.64177633 15.89173323 19 11 C14.49154561 7.26752743 9.49874671 7.27790596 3.86328125 6.72265625 C1 6 1 6 -0.45703125 4.05859375 C-1 2 -1 2 0 0 Z " fill="#293449" transform="translate(274,29)"/>
<path d="M0 0 C9.24 0 18.48 0 28 0 C28.04898438 3.36058594 28.09796875 6.72117188 28.1484375 10.18359375 C28.20254118 13.460248 28.25981176 16.73683279 28.31738281 20.01342773 C28.35552223 22.27997604 28.39040057 24.54658177 28.421875 26.81323242 C28.4678534 30.08272746 28.52579266 33.35183225 28.5859375 36.62109375 C28.59748871 37.62458359 28.60903992 38.62807343 28.62094116 39.66197205 C28.8035959 50.41004343 28.8035959 50.41004343 33.140625 59.953125 C36.55897229 62.40013863 39.67699296 63.16141517 43.75 63.75 C50.92567568 64.92567568 50.92567568 64.92567568 52 66 C52 67.65 52 69.3 52 71 C27.25 71 2.5 71 -23 71 C-23.495 68.525 -23.495 68.525 -24 66 C-20.7110593 64.09131019 -17.81604496 63.5888681 -14.0625 63.125 C-9.34385422 62.37783319 -6.18007818 61.81609381 -3 58 C-0.36304144 52.21756873 -0.6509939 46.27069392 -0.5859375 40.0390625 C-0.56657135 38.89335785 -0.5472052 37.7476532 -0.5272522 36.56723022 C-0.46763215 32.91989509 -0.42114082 29.2725281 -0.375 25.625 C-0.3368041 23.14712191 -0.29775143 20.66925686 -0.2578125 18.19140625 C-0.16033789 12.12767334 -0.08062799 6.06407385 0 0 Z " fill="#283348" transform="translate(297,167)"/>
<path d="M0 0 C9 0 9 0 12.0625 1.0625 C14 3 14 3 14.5 6.4375 C13.99877967 10.00869484 13.45227363 11.44554831 11 14 C11.66 14.94875 12.32 15.8975 13 16.875 C15 20 15 20 15 22 C14.01 22 13.02 22 12 22 C10.57741161 20.04226865 9.51869426 17.98052689 8.37890625 15.84765625 C6.96176789 13.54246941 6.96176789 13.54246941 3 13 C3 15.97 3 18.94 3 22 C2.01 22 1.02 22 0 22 C0 14.74 0 7.48 0 0 Z " fill="#313A4C" transform="translate(433,126)"/>
<path d="M0 0 C0.99 0.33 1.98 0.66 3 1 C4.20057976 3.69035026 5.22808495 6.28848759 6.1875 9.0625 C6.46013672 9.82111328 6.73277344 10.57972656 7.01367188 11.36132812 C7.68615396 13.2371992 8.34442951 15.11815203 9 17 C9.50660156 15.66195312 9.50660156 15.66195312 10.0234375 14.296875 C10.46945312 13.12640625 10.91546875 11.9559375 11.375 10.75 C11.81585938 9.58984375 12.25671875 8.4296875 12.7109375 7.234375 C13.70590855 4.73790219 14.74410046 2.37095053 16 0 C16.99 0 17.98 0 19 0 C19.99 7.26 20.98 14.52 22 22 C21.01 22 20.02 22 19 22 C17.515 14.575 17.515 14.575 16 7 C14.35 11.62 12.7 16.24 11 21 C9.68 21 8.36 21 7 21 C5.35 16.71 3.7 12.42 2 8 C1.67 8 1.34 8 1 8 C0.34 12.62 -0.32 17.24 -1 22 C-1.66 22 -2.32 22 -3 22 C-2.88525534 19.45749979 -2.7585303 16.91652662 -2.625 14.375 C-2.5940625 13.66214844 -2.563125 12.94929687 -2.53125 12.21484375 C-2.28979845 7.82847392 -1.60657269 4.1405166 0 0 Z " fill="#2E3649" transform="translate(315,126)"/>
<path d="M0 0 C0.99 0 1.98 0 3 0 C4.97265625 2.51953125 4.97265625 2.51953125 7.0625 5.8125 C7.75472656 6.89144531 8.44695312 7.97039062 9.16015625 9.08203125 C9.76730469 10.04496094 10.37445313 11.00789062 11 12 C11.99 13.485 11.99 13.485 13 15 C13.33 10.05 13.66 5.1 14 0 C14.99 0 15.98 0 17 0 C17 7.26 17 14.52 17 22 C16.01 22 15.02 22 14 22 C12.13757867 19.70056957 10.46495095 17.44213863 8.8125 15 C8.34908203 14.33226562 7.88566406 13.66453125 7.40820312 12.9765625 C6.26314503 11.32390133 5.13039735 9.66272331 4 8 C3.67 12.62 3.34 17.24 3 22 C2.01 22 1.02 22 0 22 C0 14.74 0 7.48 0 0 Z " fill="#3D4658" transform="translate(159,126)"/>
<path d="M0 0 C0.99 0 1.98 0 3 0 C3 7.26 3 14.52 3 22 C-1.41900565 19.79049717 -3.13971216 17.35420101 -5.75 13.375 C-6.16121094 12.76398438 -6.57242187 12.15296875 -6.99609375 11.5234375 C-8.00551256 10.02104672 -9.0038647 8.51123091 -10 7 C-10.33 11.95 -10.66 16.9 -11 22 C-11.99 22 -12.98 22 -14 22 C-14 15.07 -14 8.14 -14 1 C-9.21162514 2.19709372 -7.931528 4.24110423 -5.25 8.0625 C-4.83878906 8.63033203 -4.42757813 9.19816406 -4.00390625 9.78320312 C-2.99304964 11.18194657 -1.99522794 12.59009375 -1 14 C-0.67 9.38 -0.34 4.76 0 0 Z " fill="#484E5F" transform="translate(391,126)"/>
<path d="M0 0 C0.99 0 1.98 0 3 0 C4.33891561 3.28942366 5.67017703 6.58189109 7 9.875 C7.3815625 10.81214844 7.763125 11.74929687 8.15625 12.71484375 C8.5171875 13.61074219 8.878125 14.50664062 9.25 15.4296875 C9.75273437 16.67081299 9.75273437 16.67081299 10.265625 17.93701172 C11 20 11 20 11 22 C10.01 21.67 9.02 21.34 8 21 C7.71382813 20.33484375 7.42765625 19.6696875 7.1328125 18.984375 C6.75898438 18.32953125 6.38515625 17.6746875 6 17 C3.58320293 16.29823412 3.58320293 16.29823412 0.875 16.25 C-0.03507812 16.19328125 -0.94515625 16.1365625 -1.8828125 16.078125 C-2.93082031 16.03945312 -2.93082031 16.03945312 -4 16 C-4.66 17.98 -5.32 19.96 -6 22 C-6.66 22 -7.32 22 -8 22 C-5.92957946 14.39162534 -3.14169523 7.2271408 0 0 Z " fill="#39414F" transform="translate(466,126)"/>
<path d="M0 0 C1.86621094 0.22045898 1.86621094 0.22045898 4 1 C5.18847656 2.94946289 5.18847656 2.94946289 6.140625 5.47265625 C6.66269531 6.82133789 6.66269531 6.82133789 7.1953125 8.19726562 C7.54335938 9.14279297 7.89140625 10.08832031 8.25 11.0625 C8.61351562 12.01189453 8.97703125 12.96128906 9.3515625 13.93945312 C10.24850413 16.28802398 11.13050394 18.64115969 12 21 C10.68 20.67 9.36 20.34 8 20 C7.67 18.35 7.34 16.7 7 15 C3.37 15 -0.26 15 -4 15 C-4.33 16.98 -4.66 18.96 -5 21 C-5.99 21 -6.98 21 -8 21 C-6.033631 13.63011293 -3.30417422 6.86954798 0 0 Z " fill="#2B3547" transform="translate(355,127)"/>
<path d="M0 0 C0.99 0 1.98 0 3 0 C3 7.26 3 14.52 3 22 C2.01 22 1.02 22 0 22 C0 18.7 0 15.4 0 12 C-3.63 12 -7.26 12 -11 12 C-11 15.3 -11 18.6 -11 22 C-11.99 22 -12.98 22 -14 22 C-14 15.07 -14 8.14 -14 1 C-13.01 1 -12.02 1 -11 1 C-11 3.97 -11 6.94 -11 10 C-7.37 10 -3.74 10 0 10 C0 6.7 0 3.4 0 0 Z " fill="#3D4859" transform="translate(271,126)"/>
<path d="M0 0 C0.78246094 -0.01417969 1.56492188 -0.02835937 2.37109375 -0.04296875 C4.5625 0.1875 4.5625 0.1875 7.5625 2.1875 C7.5625 2.8475 7.5625 3.5075 7.5625 4.1875 C6.5725 4.1875 5.5825 4.1875 4.5625 4.1875 C4.5625 3.5275 4.5625 2.8675 4.5625 2.1875 C-0.16230523 1.73305932 -0.16230523 1.73305932 -4.3125 3.5625 C-6.79192662 7.143894 -6.73619915 9.85636226 -6.4375 14.1875 C-5.60416667 16.6875 -5.60416667 16.6875 -3.4375 18.1875 C-0.73385095 18.81675165 1.77275799 19.0045661 4.5625 19.1875 C4.5625 16.8775 4.5625 14.5675 4.5625 12.1875 C3.2425 12.1875 1.9225 12.1875 0.5625 12.1875 C0.5625 11.5275 0.5625 10.8675 0.5625 10.1875 C2.8725 10.1875 5.1825 10.1875 7.5625 10.1875 C7.64346803 11.64492463 7.70167774 13.10362807 7.75 14.5625 C7.80220703 15.78066406 7.80220703 15.78066406 7.85546875 17.0234375 C7.75878906 17.73757812 7.66210938 18.45171875 7.5625 19.1875 C3.55995384 21.85586411 0.26936701 22.0215238 -4.4375 21.1875 C-7.19319447 19.00590855 -8.87338747 17.31572506 -10.4375 14.1875 C-10.98474071 8.49619663 -10.03083707 5.62632815 -6.4375 1.1875 C-4.0978331 0.01766655 -2.60358473 0.0213759 0 0 Z " fill="#3F4656" transform="translate(237.4375,126.8125)"/>
<path d="M0 0 C2.475 1.485 2.475 1.485 5 3 C4.125 7.75 4.125 7.75 3 10 C3.99 10 4.98 10 6 10 C6.33 9.01 6.66 8.02 7 7 C7.33 7 7.66 7 8 7 C8 8.65 8 10.3 8 12 C-0.25 12 -8.5 12 -17 12 C-17 11.67 -17 11.34 -17 11 C-14.36 10.67 -11.72 10.34 -9 10 C-8.9175 9.38125 -8.835 8.7625 -8.75 8.125 C-8 6 -8 6 -5.9375 4.75 C-5.298125 4.5025 -4.65875 4.255 -4 4 C-3.67 4.33 -3.34 4.66 -3 5 C-2.01 3.35 -1.02 1.7 0 0 Z " fill="#1E293D" transform="translate(316,97)"/>
<path d="M0 0 C1.21816406 0.03480469 1.21816406 0.03480469 2.4609375 0.0703125 C3.68683594 0.09738281 3.68683594 0.09738281 4.9375 0.125 C5.87722656 0.15980469 5.87722656 0.15980469 6.8359375 0.1953125 C7.4959375 1.5153125 8.1559375 2.8353125 8.8359375 4.1953125 C8.1140625 3.8446875 7.3921875 3.4940625 6.6484375 3.1328125 C3.523667 2.09122233 1.95431754 2.30434678 -1.1640625 3.1953125 C-1.1640625 4.5153125 -1.1640625 5.8353125 -1.1640625 7.1953125 C2.1359375 8.8453125 5.4359375 10.4953125 8.8359375 12.1953125 C9.19149306 17.52864583 9.19149306 17.52864583 7.8359375 20.0703125 C4.68697436 21.84160427 1.36555421 21.74325703 -2.1640625 21.1953125 C-3.1540625 20.5353125 -4.1440625 19.8753125 -5.1640625 19.1953125 C-4.6690625 17.7103125 -4.6690625 17.7103125 -4.1640625 16.1953125 C-3.5040625 16.1953125 -2.8440625 16.1953125 -2.1640625 16.1953125 C-1.8340625 16.8553125 -1.5040625 17.5153125 -1.1640625 18.1953125 C1.1459375 18.1953125 3.4559375 18.1953125 5.8359375 18.1953125 C5.96409115 15.8100392 5.96409115 15.8100392 4.8359375 13.1953125 C2.87366602 11.92307055 0.89578306 11.00668039 -1.25390625 10.08984375 C-3.1640625 9.1953125 -3.1640625 9.1953125 -5.1640625 7.1953125 C-4.78428356 3.39752315 -4.32156606 0.39003304 0 0 Z " fill="#202738" transform="translate(192.1640625,126.8046875)"/>
<path d="M0 0 C2 0.75 2 0.75 4 3.75 C2.75 5.25 2.75 5.25 1 6.75 C-0.32 6.75 -1.64 6.75 -3 6.75 C-2.79375 7.53375 -2.5875 8.3175 -2.375 9.125 C-2.25125 9.99125 -2.1275 10.8575 -2 11.75 C-2.66 12.41 -3.32 13.07 -4 13.75 C-4.99 13.42 -5.98 13.09 -7 12.75 C-7 12.42 -7 12.09 -7 11.75 C-7.99 11.42 -8.98 11.09 -10 10.75 C-10.6875 8.4375 -10.6875 8.4375 -11 5.75 C-9.5625 3.9375 -9.5625 3.9375 -8 2.75 C-7.01 3.08 -6.02 3.41 -5 3.75 C-4.67 2.76 -4.34 1.77 -4 0.75 C-2 -0.25 -2 -0.25 0 0 Z " fill="#243046" transform="translate(318,211.25)"/>
<path d="M0 0 C0 0.99 0 1.98 0 3 C-0.66 3 -1.32 3 -2 3 C-2 3.66 -2 4.32 -2 5 C0.02045442 4.39816251 2.02111039 3.72693904 4 3 C4.33 2.34 4.66 1.68 5 1 C6.65 1 8.3 1 10 1 C8.99079883 4.02760352 8.44228872 5.07477718 6 7 C4.09887695 7.34057617 4.09887695 7.34057617 1.98828125 7.29296875 C1.23095703 7.28330078 0.47363281 7.27363281 -0.30664062 7.26367188 C-1.48516602 7.2259668 -1.48516602 7.2259668 -2.6875 7.1875 C-3.88342773 7.16719727 -3.88342773 7.16719727 -5.10351562 7.14648438 C-7.06929967 7.11117089 -9.03473582 7.05736447 -11 7 C-11.33 5.35 -11.66 3.7 -12 2 C-8.09971775 -0.60018816 -4.52565431 -0.15085514 0 0 Z " fill="#343D4F" transform="translate(285,231)"/>
<path d="M0 0 C5.61 0 11.22 0 17 0 C17 0.66 17 1.32 17 2 C14.69 2 12.38 2 10 2 C10 8.6 10 15.2 10 22 C9.01 22 8.02 22 7 22 C7 15.4 7 8.8 7 2 C4.69 2 2.38 2 0 2 C0 1.34 0 0.68 0 0 Z " fill="#30394B" transform="translate(405,126)"/>
<path d="M0 0 C5.61 0 11.22 0 17 0 C17 0.66 17 1.32 17 2 C14.69 2 12.38 2 10 2 C10 8.6 10 15.2 10 22 C9.01 22 8.02 22 7 22 C7 15.4 7 8.8 7 2 C4.69 2 2.38 2 0 2 C0 1.34 0 0.68 0 0 Z " fill="#31384C" transform="translate(285,126)"/>
<path d="M0 0 C9.24 0 18.48 0 28 0 C28 0.33 28 0.66 28 1 C27.28972656 1.04898438 26.57945312 1.09796875 25.84765625 1.1484375 C24.46900391 1.26058594 24.46900391 1.26058594 23.0625 1.375 C22.14597656 1.44460937 21.22945313 1.51421875 20.28515625 1.5859375 C19.53105469 1.72257813 18.77695312 1.85921875 18 2 C17.67 2.66 17.34 3.32 17 4 C15.7315625 3.87625 15.7315625 3.87625 14.4375 3.75 C11.10721874 3.99220227 10.04046345 4.35161357 7.3125 6 C4 8 4 8 1 8 C0.67 5.36 0.34 2.72 0 0 Z " fill="#475162" transform="translate(297,167)"/>
<path d="M0 0 C5.41139241 -0.36075949 5.41139241 -0.36075949 7.9375 1.1875 C9 3 9 3 8.8125 5.5625 C8 8 8 8 6 10 C2.875 10.125 2.875 10.125 0 10 C0 6.7 0 3.4 0 0 Z " fill="#EBEFF2" transform="translate(436,128)"/>
<path d="M0 0 C0.99 0 1.98 0 3 0 C3.99 7.26 4.98 14.52 6 22 C5.01 22 4.02 22 3 22 C2.80664062 20.92878906 2.61328125 19.85757813 2.4140625 18.75390625 C2.15149745 17.35668511 1.88845175 15.95955422 1.625 14.5625 C1.49867188 13.85544922 1.37234375 13.14839844 1.2421875 12.41992188 C0.89377757 10.59948 0.452957 8.79728352 0 7 C-0.66 6.67 -1.32 6.34 -2 6 C-1.34 4.02 -0.68 2.04 0 0 Z " fill="#29364A" transform="translate(331,126)"/>
<path d="M0 0 C0.33 1.98 0.66 3.96 1 6 C0.34 6 -0.32 6 -1 6 C-1 10.95 -1 15.9 -1 21 C-1.33 21 -1.66 21 -2 21 C-2 14.73 -2 8.46 -2 2 C-2.99 2 -3.98 2 -5 2 C-5 4.31 -5 6.62 -5 9 C-5.99 9.33 -6.98 9.66 -8 10 C-8.99 9.34 -9.98 8.68 -11 8 C-11 7.34 -11 6.68 -11 6 C-11.66 6 -12.32 6 -13 6 C-12.67 4.68 -12.34 3.36 -12 2 C-10.02 2.495 -10.02 2.495 -8 3 C-8.33 4.32 -8.66 5.64 -9 7 C-8.01 7 -7.02 7 -6 7 C-6.33 5.02 -6.66 3.04 -7 1 C-4 0 -4 0 0 0 Z " fill="#F2F5F7" transform="translate(276,124)"/>
<path d="M0 0 C0.99 0 1.98 0 3 0 C3 3.3 3 6.6 3 10 C6.3 10 9.6 10 13 10 C13 10.33 13 10.66 13 11 C9.7 11 6.4 11 3 11 C3 14.3 3 17.6 3 21 C2.01 21 1.02 21 0 21 C0 14.07 0 7.14 0 0 Z " fill="#273345" transform="translate(257,127)"/>
<path d="M0 0 C1.32 0 2.64 0 4 0 C5.1721449 2.95619219 6.33677476 5.91528789 7.5 8.875 C7.83386719 9.71675781 8.16773438 10.55851563 8.51171875 11.42578125 C8.98544922 12.63427734 8.98544922 12.63427734 9.46875 13.8671875 C9.76201172 14.61081543 10.05527344 15.35444336 10.35742188 16.12060547 C11 18 11 18 11 20 C10.01 19.67 9.02 19.34 8 19 C6.8125 15.9375 6.8125 15.9375 6 13 C3.03 13 0.06 13 -3 13 C-3 12.67 -3 12.34 -3 12 C-0.36 12 2.28 12 5 12 C4.01 8.7 3.02 5.4 2 2 C1.34 2 0.68 2 0 2 C0 1.34 0 0.68 0 0 Z " fill="#1F2A3B" transform="translate(466,128)"/>
<path d="M0 0 C0.99 0 1.98 0 3 0 C3 7.26 3 14.52 3 22 C2.01 22 1.02 22 0 22 C0 14.74 0 7.48 0 0 Z " fill="#323C4D" transform="translate(144,126)"/>
<path d="M0 0 C0.99 0 1.98 0 3 0 C3 7.26 3 14.52 3 22 C2.01 22 1.02 22 0 22 C0 14.74 0 7.48 0 0 Z " fill="#3B4553" transform="translate(213,126)"/>
<path d="M0 0 C2.45234885 0.98093954 3.7809268 1.68703828 5.3125 3.875 C6.1132654 6.35009306 5.86325845 7.58287634 5 10 C3.68 10.33 2.36 10.66 1 11 C1 9 1 9 2 8 C0.68 7.67 -0.64 7.34 -2 7 C-2.33 5.35 -2.66 3.7 -3 2 C-2.01 1.34 -1.02 0.68 0 0 Z " fill="#232F45" transform="translate(310,44)"/>
<path d="M0 0 C0.78246094 -0.01417969 1.56492188 -0.02835937 2.37109375 -0.04296875 C4.5625 0.1875 4.5625 0.1875 7.5625 2.1875 C7.5625 2.8475 7.5625 3.5075 7.5625 4.1875 C6.5725 4.1875 5.5825 4.1875 4.5625 4.1875 C4.5625 3.5275 4.5625 2.8675 4.5625 2.1875 C-0.00971776 1.69747965 -0.00971776 1.69747965 -4.03125 3.40625 C-5.65525952 5.46332873 -6.61036655 7.46087214 -7.625 9.875 C-7.96917969 10.68324219 -8.31335938 11.49148437 -8.66796875 12.32421875 C-8.92191406 12.93910156 -9.17585937 13.55398437 -9.4375 14.1875 C-9.7675 14.1875 -10.0975 14.1875 -10.4375 14.1875 C-10.8935284 8.48714499 -10.04162752 5.63965753 -6.4375 1.1875 C-4.0978331 0.01766655 -2.60358473 0.0213759 0 0 Z " fill="#364052" transform="translate(237.4375,126.8125)"/>
<path d="M0 0 C2.97903734 2.97903734 4 5.80285329 4 10 C1.36 10 -1.28 10 -4 10 C-2.68 6.7 -1.36 3.4 0 0 Z " fill="#E3EAEF" transform="translate(467,130)"/>
<path d="M0 0 C2.97903734 2.97903734 4 5.80285329 4 10 C1.36 10 -1.28 10 -4 10 C-2.68 6.7 -1.36 3.4 0 0 Z " fill="#E5EBF1" transform="translate(356,130)"/>
<path d="M0 0 C1.17744094 4.70976378 0.4890573 5.92699338 -1.4375 10.25 C-1.91058594 11.32765625 -2.38367188 12.4053125 -2.87109375 13.515625 C-3.24363281 14.33546875 -3.61617188 15.1553125 -4 16 C-4.99 15.67 -5.98 15.34 -7 15 C-7.33 13.02 -7.66 11.04 -8 9 C-6.515 9.99 -6.515 9.99 -5 11 C-3.35 7.37 -1.7 3.74 0 0 Z " fill="#242D3E" transform="translate(329,132)"/>
<path d="M0 0 C0.33 0 0.66 0 1 0 C1.33 6.93 1.66 13.86 2 21 C1.34 21 0.68 21 0 21 C-0.33 19.68 -0.66 18.36 -1 17 C-1.33 17.66 -1.66 18.32 -2 19 C-2.99 19 -3.98 19 -5 19 C-3.25 13.25 -3.25 13.25 -1 11 C-0.53709779 8.33757179 -0.53709779 8.33757179 -0.375 5.375 C-0.26285156 3.87066406 -0.26285156 3.87066406 -0.1484375 2.3359375 C-0.09945313 1.56507812 -0.05046875 0.79421875 0 0 Z " fill="#3B4455" transform="translate(324,88)"/>
<path d="M0 0 C2.625 -0.1875 2.625 -0.1875 5 0 C3.97616342 3.07150973 3.5638851 4.13885 1 6 C-1.91796875 6.29296875 -1.91796875 6.29296875 -5.1875 6.1875 C-6.27417969 6.16042969 -7.36085938 6.13335937 -8.48046875 6.10546875 C-9.31191406 6.07066406 -10.14335937 6.03585938 -11 6 C-11 5.01 -11 4.02 -11 3 C-10.06027344 3.05220703 -10.06027344 3.05220703 -9.1015625 3.10546875 C-8.28429687 3.13253906 -7.46703125 3.15960938 -6.625 3.1875 C-5.40683594 3.23970703 -5.40683594 3.23970703 -4.1640625 3.29296875 C-3.44992187 3.19628906 -2.73578125 3.09960938 -2 3 C-1.34 2.01 -0.68 1.02 0 0 Z " fill="#353E54" transform="translate(290,232)"/>
<path d="M0 0 C1.65 1.65 3.3 3.3 5 5 C3.8125 6.5625 3.8125 6.5625 2 8 C-0.6875 7.6875 -0.6875 7.6875 -3 7 C-2.25 2.25 -2.25 2.25 0 0 Z " fill="#233046" transform="translate(303,218)"/>
<path d="M0 0 C2.0625 0.75 2.0625 0.75 4 2 C4.33 2.99 4.66 3.98 5 5 C2.525 6.485 2.525 6.485 0 8 C-0.99 7.34 -1.98 6.68 -3 6 C-2.625 3.5625 -2.625 3.5625 -2 1 C-1.34 0.67 -0.68 0.34 0 0 Z " fill="#233045" transform="translate(317,40)"/>
<path d="M0 0 C1.65 0.99 3.3 1.98 5 3 C4.67 4.65 4.34 6.3 4 8 C2.35 7.67 0.7 7.34 -1 7 C-1.625 5.1875 -1.625 5.1875 -2 3 C-1.34 2.01 -0.68 1.02 0 0 Z " fill="#233046" transform="translate(316,97)"/>
<path d="M0 0 C2.95183101 2.95183101 3.08663988 5.95511947 4 10 C3.01 9.67 2.02 9.34 1 9 C0.67 10.65 0.34 12.3 0 14 C-0.66 14 -1.32 14 -2 14 C-1.85923685 12.0412957 -1.7122324 10.08303907 -1.5625 8.125 C-1.48128906 7.03445312 -1.40007812 5.94390625 -1.31640625 4.8203125 C-1 2 -1 2 0 0 Z " fill="#DAE2EA" transform="translate(316,132)"/>
<path d="M0 0 C0.33 0 0.66 0 1 0 C1.33 6.93 1.66 13.86 2 21 C-2.17799643 18.91100178 -2.92391901 17.94455388 -5 14 C-4.01 13.67 -3.02 13.34 -2 13 C-1.67 13.66 -1.34 14.32 -1 15 C-0.67 10.05 -0.34 5.1 0 0 Z " fill="#141D31" transform="translate(392,127)"/>
<path d="M0 0 C2.96404505 2.80804268 5.44499019 5.18315774 7 9 C5 9 3 9 1 9 C0 8 0 8 -0.09765625 6.15234375 C-0.06510417 4.1015625 -0.03255208 2.05078125 0 0 Z " fill="#F2F6F9" transform="translate(162,133)"/>
<path d="M0 0 C0.61875 0.28875 1.2375 0.5775 1.875 0.875 C2.205 1.865 2.535 2.855 2.875 3.875 C-2.875 7.75 -2.875 7.75 -5.125 8.875 C-5.785 8.215 -6.445 7.555 -7.125 6.875 C-5.805 6.215 -4.485 5.555 -3.125 4.875 C-3.785 4.215 -4.445 3.555 -5.125 2.875 C-2.69803371 -0.15870787 -2.69803371 -0.15870787 0 0 Z " fill="#374050" transform="translate(332.125,33.125)"/>
<path d="M0 0 C3 1 3 1 3.94921875 2.84765625 C4.31466797 3.94400391 4.31466797 3.94400391 4.6875 5.0625 C5.06455078 6.16271484 5.06455078 6.16271484 5.44921875 7.28515625 C5.63097656 7.85105469 5.81273437 8.41695312 6 9 C4.68 8.67 3.36 8.34 2 8 C1.67 6.35 1.34 4.7 1 3 C-2.3 3 -5.6 3 -9 3 C-9 2.67 -9 2.34 -9 2 C-6.03 2 -3.06 2 0 2 C0 1.34 0 0.68 0 0 Z " fill="#303949" transform="translate(361,139)"/>
<path d="M0 0 C0.99 0.33 1.98 0.66 3 1 C3.33 0.67 3.66 0.34 4 0 C4.99 0.99 5.98 1.98 7 3 C6.67 3.99 6.34 4.98 6 6 C4.35 6.33 2.7 6.66 1 7 C-0.0625 4.625 -0.0625 4.625 -1 2 C-0.67 1.34 -0.34 0.68 0 0 Z " fill="#222E44" transform="translate(301,49)"/>
<path d="M0 0 C2.64 0.33 5.28 0.66 8 1 C7.01 1.495 7.01 1.495 6 2 C6 2.66 6 3.32 6 4 C4.02 4.66 2.04 5.32 0 6 C0 5.34 0 4.68 0 4 C-1.65 4.66 -3.3 5.32 -5 6 C-4.34 5.01 -3.68 4.02 -3 3 C-2.34 3 -1.68 3 -1 3 C-0.67 2.01 -0.34 1.02 0 0 Z " fill="#F3F5F7" transform="translate(232,147)"/>
<path d="M0 0 C0.99 0.33 1.98 0.66 3 1 C3.3125 4.25 3.3125 4.25 3 8 C0.5 10.4375 0.5 10.4375 -2 12 C-1.855625 11.443125 -1.71125 10.88625 -1.5625 10.3125 C-0.71225861 6.81706319 0 3.6090264 0 0 Z " fill="#212D3F" transform="translate(444,128)"/>
<path d="M0 0 C1.32 0.66 2.64 1.32 4 2 C3.34 3.32 2.68 4.64 2 6 C0.35 6 -1.3 6 -3 6 C-3.33 4.68 -3.66 3.36 -4 2 C-3.01 2 -2.02 2 -1 2 C-0.67 1.34 -0.34 0.68 0 0 Z " fill="#222F45" transform="translate(286,230)"/>
<path d="M0 0 C3.63 0 7.26 0 11 0 C11 0.33 11 0.66 11 1 C6.545 1.495 6.545 1.495 2 2 C1.34 3.98 0.68 5.96 0 8 C-0.99 8 -1.98 8 -3 8 C-1.125 2.25 -1.125 2.25 0 0 Z " fill="#272D3B" transform="translate(350,140)"/>
<path d="M0 0 C2.31 0 4.62 0 7 0 C7 2.97 7 5.94 7 9 C6.34 9 5.68 9 5 9 C5 6.69 5 4.38 5 2 C3.35 2 1.7 2 0 2 C0 1.34 0 0.68 0 0 Z " fill="#1F2A36" transform="translate(238,137)"/>
<path d="M0 0 C1.32 0.33 2.64 0.66 4 1 C4.33 2.32 4.66 3.64 5 5 C2.69 5 0.38 5 -2 5 C-2 4.01 -2 3.02 -2 2 C-1.34 2 -0.68 2 0 2 C0 1.34 0 0.68 0 0 Z " fill="#F4F6F7" transform="translate(302,162)"/>
<path d="M0 0 C0.66 0 1.32 0 2 0 C2.33 0.66 2.66 1.32 3 2 C5.3140622 2.73075648 7.64828869 3.40138258 10 4 C10 4.33 10 4.66 10 5 C8.741875 5.04125 7.48375 5.0825 6.1875 5.125 C5.47980469 5.14820313 4.77210938 5.17140625 4.04296875 5.1953125 C2 5 2 5 -1 3 C-0.67 2.01 -0.34 1.02 0 0 Z " fill="#383F4A" transform="translate(188,143)"/>
<path d="M0 0 C0.78246094 -0.01417969 1.56492188 -0.02835937 2.37109375 -0.04296875 C4.5625 0.1875 4.5625 0.1875 7.5625 2.1875 C7.5625 2.8475 7.5625 3.5075 7.5625 4.1875 C6.5725 4.1875 5.5825 4.1875 4.5625 4.1875 C4.5625 3.5275 4.5625 2.8675 4.5625 2.1875 C-1.2349423 1.94321657 -1.2349423 1.94321657 -6.4375 4.1875 C-6.4375 3.1975 -6.4375 2.2075 -6.4375 1.1875 C-4.0978331 0.01766655 -2.60358473 0.0213759 0 0 Z " fill="#181F2E" transform="translate(237.4375,126.8125)"/>
<path d="M0 0 C0.66 0.33 1.32 0.66 2 1 C2 1.99 2 2.98 2 4 C1.34 4 0.68 4 0 4 C0 4.99 0 5.98 0 7 C-1.32 6.67 -2.64 6.34 -4 6 C-3.6875 4.125 -3.6875 4.125 -3 2 C-2.01 1.34 -1.02 0.68 0 0 Z " fill="#212E44" transform="translate(311,101)"/>
<path d="M0 0 C0.99 0 1.98 0 3 0 C2.6875 2.375 2.6875 2.375 2 5 C1.01 5.66 0.02 6.32 -1 7 C-2 4 -2 4 -1.0625 1.8125 C-0.5365625 0.9153125 -0.5365625 0.9153125 0 0 Z " fill="#374354" transform="translate(331,126)"/>
<path d="M0 0 C1.32 0 2.64 0 4 0 C4.66 2.31 5.32 4.62 6 7 C5.01 7 4.02 7 3 7 C2.67 5.35 2.34 3.7 2 2 C1.34 2 0.68 2 0 2 C0 1.34 0 0.68 0 0 Z " fill="#263244" transform="translate(466,128)"/>
<path d="M0 0 C1.32 1.32 2.64 2.64 4 4 C3.67 4.99 3.34 5.98 3 7 C2.01 6.67 1.02 6.34 0 6 C-1.1875 3.4375 -1.1875 3.4375 -2 1 C-1.34 0.67 -0.68 0.34 0 0 Z " fill="#233045" transform="translate(297,222)"/>
<path d="M0 0 C0 2.31 0 4.62 0 7 C-1.32 6.67 -2.64 6.34 -4 6 C-4.33 4.68 -4.66 3.36 -5 2 C-2 0 -2 0 0 0 Z " fill="#F4F3F1" transform="translate(281,120)"/>
<path d="M0 0 C2.31 0.33 4.62 0.66 7 1 C6.67 1.99 6.34 2.98 6 4 C4.35 3.67 2.7 3.34 1 3 C0.67 2.01 0.34 1.02 0 0 Z " fill="#F5F4F5" transform="translate(210,164)"/>
<path d="M0 0 C2.25245881 2.68841859 3.88213958 4.64641875 5 8 C4.01 8 3.02 8 2 8 C-0.1519437 4.77208445 -0.20086443 3.71599191 0 0 Z " fill="#293241" transform="translate(443,140)"/>
<path d="M0 0 C0.66 0.66 1.32 1.32 2 2 C1.875 3.9375 1.875 3.9375 1 6 C-1.0625 7.75 -1.0625 7.75 -3 9 C-3.33 8.34 -3.66 7.68 -4 7 C-3.34 6.67 -2.68 6.34 -2 6 C-1.27306096 4.02111039 -0.60183749 2.02045442 0 0 Z " fill="#DDE5EB" transform="translate(327,141)"/>
<path d="M0 0 C0.66 0.33 1.32 0.66 2 1 C2.33 1.99 2.66 2.98 3 4 C4.65 4.33 6.3 4.66 8 5 C8 5.33 8 5.66 8 6 C5.69 6 3.38 6 1 6 C-0.0625 4.125 -0.0625 4.125 -1 2 C-0.67 1.34 -0.34 0.68 0 0 Z " fill="#38414F" transform="translate(274,29)"/>
<path d="M0 0 C1.32 0 2.64 0 4 0 C3.34 1.65 2.68 3.3 2 5 C1.01 4.67 0.02 4.34 -1 4 C-0.67 2.68 -0.34 1.36 0 0 Z " fill="#242D44" transform="translate(277,233)"/>
<path d="M0 0 C1.32 1.32 2.64 2.64 4 4 C3.67 4.66 3.34 5.32 3 6 C2.01 6.33 1.02 6.66 0 7 C0 4.69 0 2.38 0 0 Z " fill="#E1E8EF" transform="translate(380,132)"/>
<path d="M0 0 C0.66 0 1.32 0 2 0 C2.66 1.32 3.32 2.64 4 4 C2.02 4.99 2.02 4.99 0 6 C-1.125 2.25 -1.125 2.25 0 0 Z " fill="#F5F5F6" transform="translate(379,119)"/>
</svg>
